<?xml version="1.0" standalone="no"?>
<!DOCTYPE svg PUBLIC "-//W3C//DTD SVG 20010904//EN"
 "http://www.w3.org/TR/2001/REC-SVG-20010904/DTD/svg10.dtd">
<svg version="1.0" xmlns="http://www.w3.org/2000/svg"
 width="1024.000000pt" height="1024.000000pt" viewBox="0 0 1024.000000 1024.000000"
 preserveAspectRatio="xMidYMid meet">

<g transform="translate(0.000000,1024.000000) scale(0.100000,-0.100000)"
fill="#000000" stroke="none">
<path d="M7734 5906 c-71 -31 -127 -127 -189 -326 -68 -217 -225 -772 -225
-796 0 -28 38 -42 79 -28 23 8 30 24 67 152 22 78 49 151 59 162 47 52 113
-14 155 -152 12 -40 32 -89 45 -109 63 -97 182 -66 274 70 46 67 47 71 27 71
-8 0 -25 -15 -37 -32 -52 -75 -110 -98 -147 -58 -10 11 -29 53 -41 93 -36 115
-91 181 -160 196 l-32 6 80 79 c85 85 96 93 143 107 62 17 87 -26 48 -81 -20
-29 -46 -42 -117 -60 -54 -14 -55 -26 -3 -34 78 -12 170 15 217 66 88 94 45
209 -72 195 -88 -9 -184 -82 -329 -247 l-48 -55 6 40 c11 75 157 516 196 595
22 44 53 94 70 113 16 19 30 37 30 41 0 11 -64 6 -96 -8z"/>
<path d="M5686 5868 c-22 -5 -63 -22 -91 -38 -106 -61 -182 -171 -255 -373
-53 -145 -52 -144 -141 -146 -38 -1 -48 -5 -57 -25 -6 -13 -8 -27 -5 -30 4 -3
35 -6 71 -6 l65 0 -7 -46 c-7 -52 -116 -500 -150 -619 -24 -82 -74 -191 -107
-234 -26 -33 -24 -41 11 -41 66 0 117 47 165 152 33 72 60 165 146 493 39 149
72 275 74 281 2 7 42 13 99 16 99 5 126 16 126 49 0 17 -9 19 -100 19 -55 0
-100 2 -100 4 0 3 16 59 35 126 62 215 130 330 220 371 52 24 70 24 95 -1 27
-27 25 -66 -5 -119 -14 -23 -25 -45 -25 -47 0 -2 14 -4 30 -4 29 0 40 -13 20
-25 -18 -11 -11 -71 11 -99 36 -46 66 -51 111 -19 52 36 78 70 78 103 0 39
-19 50 -83 47 -30 -1 -58 1 -62 5 -4 4 2 19 14 34 23 29 28 92 11 125 -22 41
-116 64 -194 47z"/>
<path d="M4663 5826 c-139 -35 -249 -172 -335 -421 l-38 -110 -64 -7 c-78 -8
-86 -12 -86 -43 0 -23 4 -24 69 -27 l68 -3 -68 -295 c-95 -409 -138 -541 -203
-617 -44 -53 -106 -38 -76 17 16 30 5 66 -22 73 -53 14 -92 -56 -63 -113 37
-72 167 -59 251 25 87 87 133 210 240 636 l69 277 44 6 c24 3 69 6 100 6 59 0
81 11 81 41 0 13 -14 18 -73 23 -40 4 -85 4 -100 1 -18 -5 -27 -3 -27 4 0 29
75 263 104 327 61 131 151 199 211 160 32 -21 34 -76 4 -125 -16 -27 -18 -36
-7 -42 51 -33 128 35 128 114 0 29 -7 46 -29 68 -16 16 -38 29 -49 29 -11 0
-32 2 -48 5 -16 2 -53 -2 -81 -9z"/>
<path d="M2710 5770 c-165 -44 -293 -137 -349 -253 -60 -125 -51 -228 28 -307
62 -62 130 -91 329 -144 92 -25 189 -55 216 -66 68 -31 124 -84 137 -132 21
-80 -24 -197 -108 -282 -124 -125 -258 -173 -456 -164 -161 8 -273 62 -318
154 -42 87 -7 216 75 279 75 57 216 82 290 51 45 -19 66 -52 66 -104 0 -52
-20 -93 -54 -112 -14 -7 -26 -18 -26 -23 0 -18 71 2 107 29 101 77 97 200 -9
256 -37 20 -58 23 -153 23 -102 0 -115 -2 -176 -31 -115 -55 -178 -138 -187
-250 -7 -88 16 -150 77 -207 88 -83 191 -117 354 -117 278 0 539 138 638 339
28 55 34 80 37 152 4 80 2 91 -23 138 -51 93 -134 136 -393 206 -94 25 -184
51 -199 57 -88 38 -143 98 -143 155 0 171 182 315 400 316 125 1 190 -45 190
-134 0 -86 -78 -169 -159 -169 -17 0 -31 -4 -31 -8 0 -39 110 -44 185 -8 146
69 183 226 73 309 -62 47 -106 59 -228 63 -93 3 -129 0 -190 -16z"/>
<path d="M6425 5655 c-41 -40 -29 -96 29 -140 l35 -27 44 31 c54 36 77 70 77
111 0 36 -30 53 -69 38 -15 -5 -35 -5 -54 2 -38 13 -34 14 -62 -15z"/>
<path d="M4900 5620 c-33 -33 -27 -86 16 -126 19 -19 41 -34 48 -34 18 0 91
54 110 82 19 27 21 69 4 86 -15 15 -53 16 -78 2 -13 -7 -21 -7 -25 0 -10 17
-54 11 -75 -10z"/>
<path d="M7099 5396 c-19 -7 -46 -20 -60 -29 -45 -31 -131 -122 -176 -185 -25
-35 -47 -61 -49 -59 -2 2 2 22 10 44 22 63 38 151 31 173 -16 52 -71 64 -158
34 -53 -18 -64 -44 -18 -44 70 0 67 -55 -17 -330 -81 -262 -81 -260 -17 -260
51 0 55 4 86 107 37 120 108 245 207 365 70 85 124 123 152 108 11 -6 20 -20
20 -30 0 -11 -24 -93 -54 -182 -30 -90 -57 -184 -61 -209 -8 -57 9 -124 38
-144 35 -24 97 -19 148 14 70 44 172 181 135 181 -7 0 -21 -12 -31 -26 -29
-45 -59 -75 -88 -91 -25 -13 -31 -13 -53 2 -39 25 -32 81 31 267 72 213 73
270 1 298 -33 12 -32 12 -77 -4z"/>
<path d="M6315 5355 c-22 -8 -41 -15 -42 -15 -2 0 -3 -7 -3 -15 0 -10 10 -15
28 -15 66 0 67 -45 6 -251 -25 -85 -48 -176 -51 -204 -9 -99 50 -155 141 -132
49 13 142 100 175 165 29 57 4 57 -35 1 -40 -58 -71 -79 -115 -79 -33 0 -38 3
-44 30 -8 34 28 182 76 310 38 104 44 184 15 206 -25 18 -99 17 -151 -1z"/>
<path d="M5737 5349 c-44 -10 -77 -26 -77 -37 0 -4 15 -12 33 -17 30 -9 32
-13 35 -61 2 -37 -7 -83 -36 -175 -73 -228 -76 -287 -21 -333 48 -41 116 -31
186 28 31 26 113 140 113 157 0 24 -29 3 -63 -46 -42 -57 -82 -81 -121 -71
-49 12 -40 92 34 306 27 80 50 161 50 181 0 61 -53 88 -133 68z"/>
<path d="M4847 5329 c-49 -12 -97 -37 -97 -50 0 -7 10 -9 23 -5 14 3 33 -1 45
-10 30 -21 28 -67 -8 -189 -48 -160 -70 -246 -70 -277 0 -40 25 -94 48 -107
30 -16 89 -13 128 5 63 30 182 180 160 201 -5 5 -18 -5 -30 -22 -50 -71 -92
-105 -129 -105 -73 0 -72 41 5 280 52 162 63 239 37 265 -19 20 -66 26 -112
14z"/>
<path d="M3679 5301 c-181 -71 -306 -265 -298 -460 3 -64 9 -85 32 -119 63
-96 199 -116 332 -49 68 34 156 133 200 225 39 81 40 82 77 82 25 0 45 7 58
20 21 21 26 40 11 40 -6 0 -13 -4 -16 -10 -3 -5 -24 -10 -45 -10 l-39 0 0 69
c1 108 -36 175 -116 212 -51 24 -136 24 -196 0z m130 -37 c96 -68 51 -375 -76
-515 -94 -104 -190 -89 -215 34 -29 140 78 413 187 474 48 27 73 29 104 7z"/>
</g>
</svg>
