<?xml version="1.0" standalone="no"?>
<!DOCTYPE svg PUBLIC "-//W3C//DTD SVG 20010904//EN"
 "http://www.w3.org/TR/2001/REC-SVG-20010904/DTD/svg10.dtd">
<svg version="1.0" xmlns="http://www.w3.org/2000/svg"
 width="1024.000000pt" height="1024.000000pt" viewBox="0 0 1024.000000 1024.000000"
 preserveAspectRatio="xMidYMid meet">

<g transform="translate(0.000000,1024.000000) scale(0.100000,-0.100000)"
fill="#000000" stroke="none">
<path d="M4895 8479 c-106 -12 -294 -61 -408 -105 -256 -100 -459 -236 -653
-437 -265 -274 -412 -568 -475 -953 -18 -111 -20 -156 -16 -324 6 -214 21
-307 78 -478 174 -529 572 -935 1097 -1122 201 -71 505 -119 672 -105 505 42
906 224 1224 555 216 226 395 576 451 885 22 122 30 394 16 523 -49 448 -277
871 -625 1156 -229 188 -445 299 -724 373 -134 35 -142 36 -347 39 -115 1
-246 -2 -290 -7z m350 -392 c94 -47 150 -126 162 -229 11 -90 -47 -211 -128
-269 -26 -19 -48 -36 -48 -39 -1 -3 20 -13 45 -24 72 -30 145 -104 185 -188
l34 -73 3 -446 3 -447 -32 -83 c-39 -102 -59 -133 -110 -165 -38 -24 -39 -26
-39 -82 0 -61 -33 -220 -75 -362 -13 -47 -34 -122 -46 -166 -22 -85 -77 -207
-94 -206 -11 1 -30 58 -74 222 -85 314 -113 432 -118 500 -6 73 -8 76 -53 121
-50 49 -95 133 -111 208 -6 29 -9 217 -7 487 l3 439 37 70 c50 97 148 185 206
185 15 0 6 14 -38 60 -32 33 -68 81 -80 107 -44 94 -36 211 22 297 72 110 229
147 353 83z m-1266 -1293 c17 -14 31 -30 31 -36 0 -18 -58 -68 -79 -68 -19 0
-61 50 -61 73 0 14 48 57 64 57 8 0 28 -12 45 -26z m2012 0 c22 -23 22 -27 9
-51 -25 -43 -46 -51 -71 -26 -26 26 -28 72 -3 90 26 19 37 16 65 -13z m303 4
c21 -29 20 -57 -1 -80 -23 -25 -48 -22 -72 8 -25 32 -26 51 -4 76 22 25 59 23
77 -4z m-1960 -4 c24 -24 20 -61 -10 -80 -24 -16 -27 -16 -52 3 -36 27 -41 66
-10 81 33 15 54 14 72 -4z"/>
<path d="M5040 7944 c-58 -49 -74 -111 -46 -177 16 -40 65 -83 103 -91 79 -18
173 65 173 151 0 113 -146 187 -230 117z"/>
<path d="M5009 7392 c-50 -32 -106 -92 -120 -129 -13 -34 -12 -848 1 -895 28
-99 134 -178 239 -178 98 0 194 74 221 171 6 20 10 210 10 452 0 465 1 459
-68 530 -55 57 -100 77 -175 77 -52 0 -71 -5 -108 -28z m95 -168 c13 -33 6
-73 -13 -84 -27 -14 -84 -13 -99 2 -16 16 -15 53 2 67 35 29 101 38 110 15z
m-4 -234 c6 -12 10 -33 8 -48 -3 -24 -8 -28 -57 -35 -67 -9 -81 1 -81 59 l0
44 60 0 c50 0 61 -3 70 -20z m-10 -220 c6 -12 10 -33 8 -48 -3 -25 -6 -27 -60
-30 -49 -3 -57 0 -63 18 -10 31 3 58 33 69 44 16 70 13 82 -9z"/>
<path d="M5057 6003 c2 -27 10 -73 18 -103 7 -30 17 -71 22 -90 6 -24 14 -35
27 -35 15 0 22 15 37 75 9 41 20 103 24 137 l7 63 -70 0 -70 0 5 -47z"/>
<path d="M5296 4561 c-60 -16 -76 -25 -117 -68 -62 -65 -83 -132 -83 -264 l-1
-97 -57 -6 c-66 -8 -80 -21 -76 -73 l3 -38 71 -3 71 -3 -3 -122 c-2 -67 -5
-203 -7 -301 -4 -172 -5 -180 -27 -198 -12 -10 -38 -18 -57 -18 -33 0 -35 -1
-28 -27 4 -16 9 -30 11 -33 3 -2 83 -6 178 -7 142 -3 176 0 186 11 21 26 3 53
-40 60 -63 10 -67 37 -53 442 l6 201 94 6 c52 3 97 8 100 11 3 3 8 25 10 51
l6 45 -107 0 -106 0 0 125 c0 106 3 132 20 165 20 40 31 45 80 41 34 -3 50
-19 50 -50 0 -66 61 -93 105 -45 67 73 28 179 -75 203 -59 14 -73 13 -154 -8z"/>
<path d="M4285 4556 c-92 -29 -134 -66 -182 -160 -22 -43 -27 -68 -31 -161 -3
-65 -9 -113 -16 -117 -6 -4 -29 -8 -52 -8 -47 0 -70 -20 -80 -68 l-6 -31 71
-3 72 -3 0 -305 c0 -338 3 -323 -68 -336 -30 -6 -34 -10 -31 -33 l3 -26 178
-3 178 -2 -3 22 c-2 15 -16 29 -40 41 -28 14 -39 26 -43 50 -3 18 -4 158 -3
312 l3 280 103 6 c113 6 122 11 122 65 0 40 -13 44 -139 44 l-93 0 4 123 c5
132 17 171 63 201 71 47 125 22 125 -59 0 -34 5 -47 19 -55 35 -18 71 -11 102
19 60 60 29 171 -58 207 -40 17 -144 17 -198 0z"/>
<path d="M7610 4549 c-128 -20 -180 -32 -180 -41 0 -5 22 -23 50 -40 27 -17
52 -38 54 -47 17 -60 26 -971 10 -1023 -3 -10 -20 -20 -40 -24 -32 -6 -35 -9
-32 -38 l3 -31 145 -5 c80 -3 153 -3 163 -1 27 5 22 49 -7 57 -54 13 -64 39
-72 179 l-7 130 127 -125 c69 -68 129 -133 132 -143 4 -12 -3 -25 -20 -38 -14
-11 -26 -29 -26 -40 0 -18 9 -19 153 -19 137 0 156 2 171 19 21 23 14 39 -32
74 -20 15 -110 104 -199 197 l-163 168 125 119 c124 117 155 139 228 167 42
17 50 48 18 66 -11 6 -87 10 -175 10 l-156 0 0 -25 c0 -19 10 -29 40 -45 22
-11 40 -26 40 -32 0 -13 -177 -187 -223 -220 l-29 -20 8 391 7 391 -29 -1
c-16 -1 -54 -5 -84 -10z"/>
<path d="M2376 4539 c-125 -19 -225 -91 -274 -197 -22 -48 -26 -71 -26 -152
-1 -81 3 -102 23 -140 55 -104 104 -140 280 -205 224 -83 266 -108 300 -179
50 -103 5 -222 -104 -279 -61 -31 -174 -35 -246 -8 -110 42 -183 135 -195 250
-4 34 -11 61 -16 61 -18 0 -58 -54 -69 -93 -13 -48 3 -150 30 -191 24 -37 75
-72 140 -98 49 -20 75 -22 211 -23 148 0 158 1 212 27 81 38 149 105 184 181
48 105 35 242 -33 339 -38 56 -116 102 -264 158 -166 63 -223 94 -262 143 -81
103 -16 282 115 318 52 14 135 6 178 -16 59 -30 114 -91 150 -164 18 -39 39
-71 46 -71 11 0 24 64 24 120 0 14 -7 50 -16 79 -13 44 -22 57 -62 82 -84 53
-211 76 -326 58z"/>
<path d="M4662 4457 c-16 -16 -22 -36 -22 -66 0 -36 6 -49 34 -77 19 -19 41
-34 49 -34 51 0 117 55 117 98 0 15 -15 39 -39 63 -32 32 -46 39 -78 39 -28 0
-46 -7 -61 -23z"/>
<path d="M5670 4464 c-39 -28 -49 -46 -50 -85 0 -52 53 -99 111 -99 89 0 133
104 70 164 -37 36 -96 44 -131 20z"/>
<path d="M6354 4463 c-34 -7 -66 -47 -67 -86 -1 -44 25 -85 65 -102 81 -33
178 61 138 134 -20 38 -87 64 -136 54z"/>
<path d="M7011 4135 c-24 -7 -60 -27 -80 -42 -64 -51 -65 -51 -57 2 l8 47 -99
-6 c-139 -10 -152 -13 -160 -43 -6 -27 4 -40 53 -69 18 -10 19 -31 22 -317 l4
-307 -36 -21 c-28 -16 -36 -27 -36 -50 l0 -29 143 0 c147 0 167 5 167 41 0 11
-13 23 -35 30 -19 7 -36 15 -36 19 -1 3 -2 126 -3 274 l-1 268 37 33 c62 57
136 63 205 18 49 -32 53 -56 53 -285 0 -117 -3 -237 -7 -266 -5 -48 -8 -54
-34 -59 -22 -4 -29 -11 -29 -28 0 -41 19 -46 166 -43 l139 3 3 25 c2 19 -5 29
-27 42 -25 14 -30 24 -37 74 -4 32 -4 133 -1 224 6 178 -3 261 -33 320 -62
121 -180 180 -289 145z"/>
<path d="M3264 4121 c-269 -98 -378 -368 -250 -619 144 -284 589 -298 772 -25
120 180 92 388 -74 545 -101 95 -141 111 -282 115 -92 2 -125 -1 -166 -16z
m227 -92 c102 -51 176 -173 186 -303 6 -80 -4 -134 -42 -221 -78 -179 -310
-194 -422 -28 -53 79 -66 126 -67 243 -1 98 1 110 30 170 70 148 192 202 315
139z"/>
<path d="M5720 4134 c-8 -1 -45 -6 -82 -9 -57 -6 -68 -10 -74 -28 -5 -15 0
-27 18 -42 13 -11 28 -30 32 -40 13 -33 27 -617 14 -632 -5 -7 -26 -15 -45
-19 -30 -6 -34 -10 -31 -33 l3 -26 141 -3 c133 -2 141 -1 160 19 19 21 19 22
0 33 -60 35 -57 14 -55 405 2 196 -1 362 -5 369 -7 11 -41 14 -76 6z"/>
<path d="M4596 4119 c-27 -4 -53 -12 -58 -17 -16 -16 9 -50 43 -57 53 -12 57
-35 53 -355 -2 -157 -3 -290 -4 -297 0 -7 -16 -15 -35 -19 -27 -5 -35 -11 -35
-28 0 -44 9 -46 156 -45 146 1 174 8 174 39 0 14 -11 22 -40 30 -22 6 -44 19
-50 30 -6 11 -10 147 -10 359 0 186 -3 346 -6 355 -5 13 -20 16 -73 15 -36 -1
-88 -5 -115 -10z"/>
<path d="M6315 4117 c-44 -5 -84 -12 -88 -17 -16 -15 4 -51 33 -62 16 -5 31
-15 33 -22 4 -11 11 -557 8 -607 -1 -9 -13 -20 -27 -23 -22 -6 -25 -11 -22
-44 l3 -37 140 0 140 0 3 26 c2 20 -5 30 -35 50 l-38 24 -6 355 c-4 195 -7
356 -8 356 -7 7 -71 8 -136 1z"/>
<path d="M6015 3492 c-25 -17 -55 -72 -55 -101 0 -34 49 -95 85 -105 29 -8 82
28 102 70 17 34 17 37 -6 78 -29 56 -90 84 -126 58z"/>
<path d="M3510 2952 c0 -30 3 -32 27 -30 33 4 41 -17 42 -119 1 -71 2 -73 26
-73 25 0 25 0 25 98 l0 98 35 -4 c33 -4 35 -3 35 26 l0 31 -95 3 -95 3 0 -33z"/>
<path d="M4005 2962 c-8 -34 3 -45 41 -38 l33 7 3 -98 c3 -91 4 -98 24 -101
21 -3 22 2 29 98 l7 102 29 -4 c26 -4 29 -2 29 23 l0 28 -95 3 c-91 3 -94 2
-100 -20z"/>
<path d="M4358 2982 l-98 -3 0 -30 c0 -29 1 -30 34 -24 l34 7 7 -101 c7 -98 8
-101 31 -101 24 0 24 2 24 95 l0 95 40 0 c38 0 40 2 40 29 0 17 -3 31 -7 33
-5 2 -52 2 -105 0z"/>
<path d="M4935 2976 c-34 -14 -80 -64 -90 -95 -9 -31 12 -95 41 -122 21 -19
36 -24 79 -24 48 0 58 4 89 34 61 59 58 136 -8 186 -41 31 -74 38 -111 21z
m75 -64 c15 -12 22 -29 23 -55 1 -45 -21 -70 -62 -70 -66 0 -94 71 -46 118 29
30 55 32 85 7z"/>
<path d="M5890 2953 c0 -31 2 -32 30 -26 l30 6 0 -76 c0 -91 11 -127 41 -127
20 0 21 4 17 98 l-3 97 38 -3 c36 -3 37 -2 37 30 l0 33 -95 0 -95 0 0 -32z"/>
<path d="M6365 2981 c-28 -12 -52 -41 -60 -71 -5 -21 0 -30 24 -48 17 -12 42
-27 57 -32 27 -11 28 -27 1 -44 -12 -8 -21 -6 -35 7 -25 23 -52 22 -52 -2 0
-28 47 -61 87 -61 43 0 83 37 83 78 0 31 -26 60 -78 86 -27 14 -31 20 -22 31
12 14 40 10 40 -7 0 -19 45 -3 48 18 5 35 -51 62 -93 45z"/>
<path d="M3815 2938 c-64 -146 -83 -198 -72 -198 7 0 22 -3 35 -6 17 -5 22 -2
22 14 0 29 24 44 66 40 31 -2 39 -8 44 -28 5 -19 13 -26 39 -28 40 -4 40 -6
-30 143 -56 121 -73 131 -104 63z m55 -90 c0 -5 -9 -8 -20 -8 -22 0 -23 3 -13
39 l6 23 13 -23 c7 -13 13 -27 14 -31z"/>
<path d="M4598 2962 c-64 -42 -81 -91 -54 -155 18 -44 45 -65 91 -72 48 -7 95
18 125 67 24 39 25 69 5 108 -34 66 -110 90 -167 52z m97 -56 c13 -9 19 -26
19 -51 0 -62 -70 -89 -114 -45 -56 56 30 144 95 96z"/>
<path d="M5367 2862 c-32 -65 -57 -122 -57 -125 0 -4 16 -7 35 -7 31 0 35 3
35 25 0 24 3 25 55 25 50 0 55 -2 61 -25 5 -20 13 -25 36 -25 25 0 29 3 23 18
-4 9 -23 57 -42 106 -34 90 -56 126 -78 126 -6 0 -37 -53 -68 -118z m93 -19
c0 -7 -9 -13 -20 -13 -21 0 -24 10 -13 49 l6 23 13 -23 c7 -13 13 -30 14 -36z"/>
<path d="M5630 2860 c0 -116 1 -121 23 -129 31 -12 37 -6 37 40 0 21 3 39 6
39 18 0 43 -23 54 -50 10 -25 18 -30 46 -30 41 0 44 17 9 50 -14 13 -25 29
-25 35 0 6 11 22 25 35 29 27 31 40 10 79 -17 35 -60 51 -131 51 l-54 0 0
-120z m116 56 c15 -12 17 -18 8 -33 -15 -24 -67 -24 -72 0 -9 44 25 61 64 33z"/>
<path d="M6155 2908 c-4 -40 -5 -95 -3 -123 3 -46 5 -50 31 -53 l27 -3 0 125
0 126 -24 0 c-23 0 -25 -4 -31 -72z"/>
<path d="M6535 2960 c-9 -29 2 -40 40 -40 l34 0 3 -92 3 -93 28 -3 27 -3 0
102 0 102 36 -6 c34 -6 35 -5 32 21 l-3 27 -97 3 c-89 2 -97 1 -103 -18z"/>
<path d="M3175 2905 c-31 -30 -32 -65 -2 -93 30 -28 58 -28 84 1 32 36 35 45
19 75 -25 49 -64 55 -101 17z"/>
<path d="M6966 2898 c-23 -32 -20 -65 9 -93 31 -32 40 -31 76 5 23 22 29 35
24 52 -16 55 -81 76 -109 36z"/>
<path d="M5058 2376 c-142 -196 -198 -314 -198 -415 1 -141 120 -261 261 -261
69 0 165 44 208 97 41 49 65 132 57 197 -10 84 -32 135 -124 278 -48 75 -95
151 -104 167 -9 17 -21 31 -25 30 -4 0 -38 -42 -75 -93z m20 -199 c2 -9 -11
-44 -27 -79 -19 -38 -31 -78 -31 -103 0 -42 29 -102 55 -111 23 -9 18 -31 -9
-38 -60 -15 -116 48 -116 130 0 100 113 277 128 201z"/>
<path d="M4486 2191 c-27 -29 -25 -85 4 -116 32 -34 63 -32 94 6 33 38 33 73
1 104 -29 30 -75 33 -99 6z"/>
<path d="M5651 2184 c-27 -34 -27 -68 0 -105 28 -40 69 -39 103 2 33 39 33 69
-2 102 -36 35 -74 35 -101 1z"/>
<path d="M4254 2182 c-6 -4 -16 -17 -23 -30 -10 -19 -10 -28 4 -48 19 -30 39
-31 59 -2 20 29 20 52 0 72 -17 18 -24 19 -40 8z"/>
</g>
</svg>
